<svg width="42" height="40" viewBox="0 0 42 40" fill="none" xmlns="http://www.w3.org/2000/svg">
<g filter="url(#filter0_d_178_2098)">
<path d="M20.5556 19.7544C24.8585 19.7544 28.3985 23.1266 28.8327 27.4503H28.8769C28.7935 22.779 25.0989 19.0186 20.5556 19.0186C16.0123 19.0186 12.3178 22.779 12.2344 27.4503H12.2785C12.7128 23.1266 16.2527 19.7544 20.5556 19.7544Z" fill="#1F425F"/>
<path d="M20.5605 25.7258C20.6653 25.7258 20.7674 25.7332 20.8672 25.7444C20.7645 25.8207 20.6601 25.8998 20.5547 25.9827C20.4498 25.9002 20.3463 25.8212 20.2441 25.7454C20.3469 25.7335 20.4525 25.7258 20.5605 25.7258Z" fill="url(#paint0_linear_178_2098)" stroke="#F3903F" stroke-width="10"/>
<path d="M21.333 39.5347C21.2226 39.7336 21.0313 39.8679 20.8865 39.9302C20.835 39.9517 20.7835 39.9685 20.7295 39.9781C20.7148 39.9805 20.7025 39.9829 20.6903 39.9829C20.6706 39.9853 20.651 39.9877 20.6314 39.9901C20.6044 39.9925 20.5799 39.9949 20.5553 39.9949C20.5308 39.9949 20.5014 39.9925 20.4768 39.9901C20.4572 39.9901 20.4376 39.9877 20.418 39.9829C20.4057 39.9829 20.391 39.9805 20.3787 39.9781C20.1138 39.9326 19.8194 39.8032 19.4882 39.6114C18.6664 39.1345 17.636 38.286 16.3873 37.4903C14.6382 36.3734 14.4788 36.5963 12.737 35.6256C7.85512 32.9053 5.31606 28.9603 5.03885 23.86C4.98243 22.8534 5.05602 21.854 5.17623 20.8545C5.19831 20.6724 5.22774 20.4806 5.29643 20.3105C5.4657 19.8958 5.82878 19.6753 6.31697 19.7233C6.79534 19.7712 7.14615 20.0157 7.17804 20.4734C7.20993 20.9001 7.1854 21.3291 7.1854 21.7557C7.16087 24.7325 8.05138 27.4024 10.5536 29.5163C11.5619 30.3696 12.7125 31.0095 13.9759 31.4889V31.4913C14.2531 31.5967 14.5376 31.695 14.8271 31.7861C15.0871 31.8676 15.3178 31.8987 15.5042 31.6806C15.7127 31.4361 15.5238 31.2708 15.3447 31.103C14.6161 30.4199 13.8851 29.7392 13.154 29.061V29.0586C13.1491 29.0538 13.1418 29.049 13.1369 29.0442C12.6487 28.5888 12.58 28.191 12.9725 27.8842C13.0093 27.8554 13.0436 27.8314 13.0804 27.8123C13.4999 27.5486 13.8875 27.7164 14.2432 28.016C15.9728 29.4732 17.5354 29.7824 19.0196 32.0521C19.8611 33.3439 20.0941 34.3865 20.234 35.3189C20.2855 35.6664 20.3223 35.9995 20.3762 36.3207C20.4106 36.534 20.4498 36.7425 20.5063 36.951C20.6068 37.3369 20.7565 37.7156 21.0043 38.0991C21.1465 38.3148 21.6225 39.0026 21.333 39.5347Z" fill="#1F425F"/>
<path d="M36.0698 23.8651C35.795 28.9654 33.256 32.9128 28.3716 35.6307C26.6299 36.6014 26.4704 36.3785 24.7213 37.4954C23.4751 38.2911 22.4472 39.1396 21.6229 39.6141C21.2917 39.8058 20.9949 39.9377 20.7299 39.9832C20.7152 39.9856 20.7029 39.988 20.6907 39.988C20.6711 39.9904 20.6514 39.9928 20.6318 39.9952C20.6048 39.9976 20.5803 40 20.5558 40C20.5312 40 20.5018 39.9976 20.4772 39.9952C20.4576 39.9952 20.438 39.9928 20.4184 39.988C20.4061 39.988 20.3914 39.9856 20.3791 39.9832C20.3252 39.9736 20.2736 39.9568 20.2221 39.9353C20.0774 39.873 19.886 39.7387 19.7781 39.5398C19.4518 38.9454 20.0406 38.2408 20.254 37.7039C20.3497 37.4618 20.4355 37.215 20.5116 36.9609C20.5729 36.7572 20.6318 36.5511 20.6809 36.3473C20.6809 36.345 20.6809 36.345 20.6809 36.3426C20.7275 36.1604 20.7692 35.9759 20.8109 35.8009C20.8477 35.6427 20.8796 35.4869 20.9164 35.3263C21.1666 34.1903 21.4463 33.0375 22.0841 32.062C23.5683 29.7923 25.131 29.4831 26.8605 28.0259C27.2186 27.7263 27.6038 27.5585 28.0233 27.8221C28.0601 27.8413 28.0944 27.8677 28.1312 27.894C28.5237 28.2008 28.455 28.5987 27.9669 29.0541C27.962 29.0589 27.957 29.0637 27.9521 29.0661V29.0684C27.2211 29.7491 26.49 30.4298 25.759 31.1129C25.5824 31.2782 25.391 31.446 25.5995 31.6905C25.786 31.9086 26.0166 31.8774 26.2766 31.7959C26.5661 31.7049 26.8507 31.6066 27.1303 31.5011V31.4987C28.3913 31.0194 29.5418 30.3795 30.5525 29.5262C33.0523 27.4123 33.9429 24.7423 33.9183 21.7656C33.9183 21.339 33.8938 20.9099 33.9257 20.4833C33.96 20.0256 34.3108 19.7811 34.7868 19.7332C35.2749 19.6828 35.6356 19.9033 35.8073 20.3204C35.876 20.4905 35.9054 20.6823 35.9275 20.8644C36.0526 21.8591 36.1237 22.8585 36.0698 23.8651Z" fill="#00AEEF"/>
<path d="M20.6509 13.8268C20.1382 12.6835 19.8708 11.5355 19.6647 10.3851C19.4709 9.23704 19.3703 8.0842 19.3482 6.93377C19.3262 5.78093 19.385 4.62811 19.5396 3.47288C19.7039 2.31765 19.9296 1.16242 20.4056 0C20.9232 1.14324 21.1906 2.29128 21.3942 3.44172C21.588 4.58976 21.6886 5.74259 21.7082 6.89302C21.7278 8.04585 21.6665 9.19869 21.5144 10.3539C21.35 11.5115 21.1243 12.6668 20.6509 13.8268Z" fill="url(#paint1_linear_178_2098)"/>
<path d="M26.1641 13.7934C26.2671 12.6694 26.5836 11.6675 26.9515 10.6968C27.3318 9.73096 27.7881 8.81061 28.3155 7.93101C28.843 7.04901 29.4415 6.21015 30.1186 5.41443C30.8055 4.6259 31.5488 3.86853 32.5056 3.2334C32.405 4.35987 32.091 5.3617 31.7206 6.33238C31.3403 7.29827 30.884 8.21862 30.3517 9.09822C29.8218 9.97782 29.2232 10.8167 28.5461 11.6124C27.8592 12.3985 27.1184 13.1559 26.1641 13.7934Z" fill="url(#paint2_linear_178_2098)"/>
<path d="M30.0684 17.9344C30.7553 17.0284 31.5599 16.3333 32.3915 15.691C33.2305 15.0607 34.1112 14.507 35.0312 14.0229C35.9511 13.5387 36.9103 13.1265 37.9112 12.7934C38.9195 12.4698 39.9572 12.2014 41.1102 12.1462C40.4233 13.0546 39.6211 13.7521 38.7895 14.392C37.9505 15.0223 37.0698 15.576 36.1474 16.0553C35.2274 16.5371 34.2682 16.9493 33.2649 17.2825C32.2591 17.606 31.2214 17.8768 30.0684 17.9344Z" fill="url(#paint3_linear_178_2098)"/>
<path d="M14.8698 13.8635C13.8811 13.2811 13.0961 12.5645 12.3651 11.8167C11.6438 11.0617 10.9962 10.2564 10.4172 9.40557C9.83583 8.55712 9.32556 7.66313 8.89134 6.72121C8.46694 5.77211 8.09405 4.78944 7.92969 3.67017C8.92078 4.25018 9.70581 4.9668 10.4393 5.71698C11.1606 6.47196 11.8082 7.27726 12.3847 8.1281C12.9637 8.97895 13.4739 9.87293 13.9081 10.8148C14.3301 11.764 14.703 12.7466 14.8698 13.8635Z" fill="url(#paint4_linear_178_2098)"/>
<path d="M11.1792 17.7485C10.0238 17.7173 8.98116 17.4728 7.96553 17.1733C6.95482 16.8617 5.98581 16.4734 5.05605 16.0132C4.12383 15.5531 3.22841 15.0234 2.37469 14.4098C1.52589 13.7891 0.706521 13.1108 0 12.2168C1.15546 12.2456 2.20052 12.49 3.21369 12.7896C4.22441 13.0988 5.19097 13.4895 6.12319 13.952C7.0554 14.4122 7.94836 14.9467 8.80208 15.5579C9.64843 16.181 10.4703 16.8569 11.1792 17.7485Z" fill="url(#paint5_linear_178_2098)"/>
</g>
<defs>
<filter id="filter0_d_178_2098" x="0" y="0" width="41.1094" height="40" filterUnits="userSpaceOnUse" color-interpolation-filters="sRGB">
<feFlood flood-opacity="0" result="BackgroundImageFix"/>
<feColorMatrix in="SourceAlpha" type="matrix" values="0 0 0 0 0 0 0 0 0 0 0 0 0 0 0 0 0 0 127 0" result="hardAlpha"/>
<feOffset/>
<feComposite in2="hardAlpha" operator="out"/>
<feColorMatrix type="matrix" values="0 0 0 0 0 0 0 0 0 0 0 0 0 0 0 0 0 0 0.25 0"/>
<feBlend mode="normal" in2="BackgroundImageFix" result="effect1_dropShadow_178_2098"/>
<feBlend mode="normal" in="SourceGraphic" in2="effect1_dropShadow_178_2098" result="shape"/>
</filter>
<linearGradient id="paint0_linear_178_2098" x1="23.873" y1="15.7204" x2="17.449" y2="39.0331" gradientUnits="userSpaceOnUse">
<stop stop-color="#FFF33B"/>
<stop offset="0.0595" stop-color="#FFE029"/>
<stop offset="0.1303" stop-color="#FFD217"/>
<stop offset="0.2032" stop-color="#FEC90E"/>
<stop offset="0.2809" stop-color="#FDC70C"/>
<stop offset="0.6685" stop-color="#F3903F"/>
<stop offset="0.8876" stop-color="#ED683C"/>
<stop offset="1" stop-color="#E93E3A"/>
</linearGradient>
<linearGradient id="paint1_linear_178_2098" x1="22.1794" y1="-2.11062" x2="18.9127" y2="16.5836" gradientUnits="userSpaceOnUse">
<stop stop-color="#FFF33B"/>
<stop offset="0.0595" stop-color="#FFE029"/>
<stop offset="0.1303" stop-color="#FFD217"/>
<stop offset="0.2032" stop-color="#FEC90E"/>
<stop offset="0.2809" stop-color="#FDC70C"/>
<stop offset="0.6685" stop-color="#F3903F"/>
<stop offset="0.8876" stop-color="#ED683C"/>
<stop offset="1" stop-color="#E93E3A"/>
</linearGradient>
<linearGradient id="paint2_linear_178_2098" x1="30.9992" y1="-0.569342" x2="27.7325" y2="18.1248" gradientUnits="userSpaceOnUse">
<stop stop-color="#FFF33B"/>
<stop offset="0.0595" stop-color="#FFE029"/>
<stop offset="0.1303" stop-color="#FFD217"/>
<stop offset="0.2032" stop-color="#FEC90E"/>
<stop offset="0.2809" stop-color="#FDC70C"/>
<stop offset="0.6685" stop-color="#F3903F"/>
<stop offset="0.8876" stop-color="#ED683C"/>
<stop offset="1" stop-color="#E93E3A"/>
</linearGradient>
<linearGradient id="paint3_linear_178_2098" x1="44.4393" y1="10.898" x2="25.5097" y2="20.1779" gradientUnits="userSpaceOnUse">
<stop stop-color="#FFF33B"/>
<stop offset="0.0595" stop-color="#FFE029"/>
<stop offset="0.1303" stop-color="#FFD217"/>
<stop offset="0.2032" stop-color="#FEC90E"/>
<stop offset="0.2809" stop-color="#FDC70C"/>
<stop offset="0.6685" stop-color="#F3903F"/>
<stop offset="0.8876" stop-color="#ED683C"/>
<stop offset="1" stop-color="#E93E3A"/>
</linearGradient>
<linearGradient id="paint4_linear_178_2098" x1="2.82973" y1="1.80083" x2="18.2197" y2="14.9019" gradientUnits="userSpaceOnUse">
<stop stop-color="#FFF33B"/>
<stop offset="0.0595" stop-color="#FFE029"/>
<stop offset="0.1303" stop-color="#FFD217"/>
<stop offset="0.2032" stop-color="#FEC90E"/>
<stop offset="0.2809" stop-color="#FDC70C"/>
<stop offset="0.6685" stop-color="#F3903F"/>
<stop offset="0.8876" stop-color="#ED683C"/>
<stop offset="1" stop-color="#E93E3A"/>
</linearGradient>
<linearGradient id="paint5_linear_178_2098" x1="-3.79049" y1="9.74712" x2="13.5957" y2="19.9161" gradientUnits="userSpaceOnUse">
<stop stop-color="#FFF33B"/>
<stop offset="0.0595" stop-color="#FFE029"/>
<stop offset="0.1303" stop-color="#FFD217"/>
<stop offset="0.2032" stop-color="#FEC90E"/>
<stop offset="0.2809" stop-color="#FDC70C"/>
<stop offset="0.6685" stop-color="#F3903F"/>
<stop offset="0.8876" stop-color="#ED683C"/>
<stop offset="1" stop-color="#E93E3A"/>
</linearGradient>
</defs>
</svg>
